<svg id="SvgjsSvg1001" width="288" height="288" xmlns="http://www.w3.org/2000/svg" version="1.1" xmlns:xlink="http://www.w3.org/1999/xlink" xmlns:svgjs="http://svgjs.com/svgjs"><defs id="SvgjsDefs1002"></defs><g id="SvgjsG1008"><svg xmlns="http://www.w3.org/2000/svg" enable-background="new 0 0 1000 1000" viewBox="0 0 1000 1000" width="288" height="288"><g transform="matrix(.1 0 0 -.1 0 511)" fill="#005eb8" class="color000 svgShape"><path fill="#005eb8" d="M4405.7,4636.3c-38.8-7.3-148-29.1-242.6-50.9c-822.3-191.6-1523.4-897.5-1816.9-1826.6c-114-359-143.1-596.7-145.5-1171.6c-2.4-528.8-2.4-531.3,55.8-577.3c67.9-55.8,167.4-60.6,240.1-7.3l53.4,36.4V866.7c0-150.4,7.3-179.5,60.6-230.4c72.8-72.8,155.2-77.6,240.1-9.7l63.1,48.5v676.8v676.8l-63.1,48.5c-70.3,55.8-133.4,63.1-206.2,26.7c-41.2-21.8-46.1-17-46.1,41.2c0,36.4,26.7,177.1,58.2,310.5c201.3,827.2,737.4,1467.6,1440.9,1719.9l211,75.2H5000h691.3l211-75.2c703.5-252.3,1239.5-890.2,1440.9-1719.9c31.5-133.4,58.2-274.1,58.2-310.5c0-58.2-4.9-63.1-46.1-41.2c-72.8,36.4-135.8,29.1-206.2-26.7l-63.1-48.5v-676.8V675.1l63.1-48.5c84.9-67.9,167.4-63.1,240.2,9.7c53.4,50.9,60.6,80,60.6,230.4V1039l53.4-36.4c101.9-70.3,240.1-29.1,288.7,87.3c38.8,97,14.6,980-36.4,1261.4C7554.3,3455,6829,4318.5,5885.4,4578.1c-172.2,48.5-264.4,55.8-800.5,60.6C4752.6,4643.6,4446.9,4641.2,4405.7,4636.3z" class="color005EB8 svgShape"></path><path d="M4580.4,3983.8c-533.7-101.9-1001.8-407.5-1200.7-785.9c-138.3-259.6-155.3-356.6-169.8-933.9l-9.7-531.2l-67.9-58.2c-104.3-87.3-126.1-184.3-99.5-422.1c26.7-218.3,135.8-638,218.3-829.6c29.1-65.5,72.8-206.2,101.9-312.9c58.2-228,162.5-448.8,283.8-599.1l84.9-104.3L3695-853.1c-21.8-194.1-38.8-262-70.4-281.4c-135.8-82.5-181.9-152.8-286.2-446.3c-58.2-165-109.2-300.8-114-303.2c-4.8-2.4-138.3-63.1-298.4-133.4c-516.7-230.4-1765.9-805.4-1964.9-907.2c-247.4-123.7-460.9-269.2-514.3-346.9C415.3-3322.5,102.4-4341.3,100-4402c0-12.1,2205-19.4,4900-19.4c2695,0,4900,7.3,4900,19.4c-2.4,58.2-317.8,1084.3-349.3,1132.8c-97,148-468.2,339.6-2003.7,1035.8c-366.3,167.4-691.3,310.5-718,320.2c-51,14.5-75.2,70.3-242.6,540.9c-34,92.2-104.3,172.2-213.5,237.7c-29.1,17-46.1,89.8-67.9,281.4l-26.7,254.7l89.8,118.8c131,169.8,223.2,363.9,279,589.4c29.1,106.7,72.8,247.4,101.9,312.9c82.5,191.6,191.7,611.3,218.3,829.6c26.7,237.7,4.9,334.8-99.4,422.1l-67.9,58.2l-9.7,531.2c-14.6,606.4-41.3,735-211,999.4c-220.7,339.6-553.1,565.2-1009.1,686.5C5312.9,4015.3,4842.3,4032.3,4580.4,3983.8z" fill="#005eb8" class="color000 svgShape"></path></g></svg></g></svg>