<svg id="SvgjsSvg1001" width="288" height="288" xmlns="http://www.w3.org/2000/svg" version="1.1" xmlns:xlink="http://www.w3.org/1999/xlink" xmlns:svgjs="http://svgjs.com/svgjs"><defs id="SvgjsDefs1002"></defs><g id="SvgjsG1008"><svg xmlns="http://www.w3.org/2000/svg" enable-background="new 0 0 1000 1000" viewBox="0 0 1000 1000" width="288" height="288"><g transform="matrix(.1 0 0 -.1 0 128)" fill="#005eb8" class="color000 svgShape"><path d="M1145.3-1977.8L100-3023.1h4900 4900L8854.7-1977.8 7809.3-932.4H5000 2190.7L1145.3-1977.8zM121.8-5113.8v-1393.8H5000h4878.2v1393.8V-3720H5000 121.8V-5113.8zM7787.6-4765.3v-348.4H4303.1 818.7v348.4 348.4h3484.4 3484.4V-4765.3zM9159.5-4765.3V-5092h-326.7-326.7l-13.1 278.8c-17.4 400.7-17.4 400.7 348.4 387.6l317.9-13.1V-4765.3z" fill="#005eb8" class="color000 svgShape"></path></g></svg></g></svg>