<svg id="SvgjsSvg1001" width="288" height="288" xmlns="http://www.w3.org/2000/svg" version="1.1" xmlns:xlink="http://www.w3.org/1999/xlink" xmlns:svgjs="http://svgjs.com/svgjs"><defs id="SvgjsDefs1002"></defs><g id="SvgjsG1008"><svg xmlns="http://www.w3.org/2000/svg" enable-background="new 0 0 1000 1000" viewBox="0 0 1000 1000" width="288" height="288"><path d="M653,315.1V77.2c7.8-7.1,13-17,13-28.5c0-21.3-17.4-38.7-38.8-38.7c-21.6,0-38.8,17.4-38.8,38.7c0,11.5,5.2,21.4,13,28.6v234.4h-75.7v-85.5c0-14.2-11.6-25.7-25.8-25.7c-14.3,0-25.8,11.5-25.8,25.7v85.5h-57.6v-47.2c0-21.3-17.4-38.5-38.7-38.5c-21.3,0-38.7,17.2-38.7,38.5V319c-15.4,9-26.4,25-26.4,44v208c0,28.3,7.9,64.2,17.6,79.8c9.7,15.6,17.6,51.4,17.6,79.8v207.8c-0.1,28.3,23.2,51.5,51.5,51.5h200.8c28.3,0,51.5-23.2,51.5-51.5V730.6c0-28.4,7.9-64.2,17.6-79.8c9.7-15.7,17.6-51.4,17.6-79.8V363C687.2,340.8,672.8,322.4,653,315.1z M652,564.7H348v-25.8H652L652,564.7L652,564.7z M652,510.6H348v-25.7H652L652,510.6L652,510.6z M652,456.4H348v-25.7H652L652,456.4L652,456.4z M652,402.2H348v-25.8H652L652,402.2L652,402.2z" fill="#005eb8" class="color000 svgShape"></path></svg></g></svg>