<svg id="SvgjsSvg1006" width="288" height="288" xmlns="http://www.w3.org/2000/svg" version="1.1" xmlns:xlink="http://www.w3.org/1999/xlink" xmlns:svgjs="http://svgjs.com/svgjs"><defs id="SvgjsDefs1007"></defs><g id="SvgjsG1008"><svg xmlns="http://www.w3.org/2000/svg" xmlns:svgjs="http://svgjs.com/svgjs" xmlns:xlink="http://www.w3.org/1999/xlink" width="288" height="288"><svg xmlns="http://www.w3.org/2000/svg" xmlns:svgjs="http://svgjs.com/svgjs" xmlns:xlink="http://www.w3.org/1999/xlink" width="288" height="288"><svg xmlns="http://www.w3.org/2000/svg" width="288" height="288" enable-background="new 0 0 1000 1000" viewBox="0 0 1000 1000"><path fill="#005eb8" d="M871.2,102.6c-1.6-1-40.3-23.7-103.8-46.6c-58.4-21-150-46-254.3-46c-3.7,0-7.4,0-11,0.1c-106.7,1.8-201.9,26.6-263,47.1c-66.4,22.3-107.3,44-109.1,44.9l-12.5,6.7l-0.2,548.3l1.6,4.2c1.7,4.4,43.7,109.3,133.4,181.5c43.2,34.8,93.8,70.6,138.8,98.3c79.7,49,103.5,49,111.3,49c52.7,0,174.2-88.6,241.9-141.5c111.5-86.9,136.7-185,137.8-189.2l0.7-2.8V109.5L871.2,102.6z M835.4,650.4c-2,6.5-8.5,25.5-22.7,50.4c-16.3,28.4-46.4,70.6-97.5,110.4C576.9,918.9,514.7,942.6,502.4,942.6c-6.3,0-32.5-8.8-86.5-42c-43.4-26.7-92.2-61.2-133.9-94.8c-70.5-56.8-109.2-139.2-117.4-158l0.2-510c16.4-7.8,48.1-21.8,90.3-35.9c57.7-19.3,147.5-42.6,247.7-44.3c3.4-0.1,6.8-0.1,10.2-0.1c97,0,182.5,23.3,237.1,42.8c40.1,14.3,69.9,28.8,85.2,36.8V650.4L835.4,650.4z" class="color000 svgShape color005eb8 colorfff"></path><path fill="#005eb8" d="M654.2,492.3c0.4-33.4-36-30.9-36-30.9V382c0,0-5.9-95.3-112.9-95.3c-119.6,0-121.2,97.8-121.2,97.8v76.9c-42.6-3.3-37.6,32.6-37.6,32.6s-1.7,162.2,0,193.2c1.7,30.9,37.6,25.9,37.6,25.9s223,0,243.3,0c29.9,0,26.8-29.3,26.8-29.3S653.9,519.1,654.2,492.3z M525.7,596.2c-0.1,0.1,0.4,39.1-0.2,39.5c-5.1,4-12.2,10.5-23.1,10.5c-13.4,0-25.1-9.3-25.1-10.8c-0.1-7.6,0-40.6-0.1-40.7c-9.1-7.4-14.9-18.6-14.9-31.2c0-22.2,18-40.1,40.1-40.1c22.2,0,40.1,18,40.1,40.1C542.6,576.4,535.2,588.8,525.7,596.2z M568.9,459.7H434.3v-76.1c0,0,0-50.2,67.2-50.2c62.4,0,67.4,50.2,67.4,50.2V459.7z" class="color000 svgShape color005eb8 colorfff"></path></svg></svg></svg></g></svg>